# xmcd
#
# Track frame offsets:
#	150
#	13440
#	26564
#	46320
#	68078
#	93094
#	112259
#	126614
#	143739
#	156646
#	172385
#	196145
#	219545
#
# Disc length: 3131 seconds
#
# Revision: 0
# Processed by: cddbd v1.5.2PL0 Copyright (c) Steve Scherf et al.
# Submitted via: MuRip/1.0beta +https://www.muman.ch
#
DISCID=ca0c390d
DTITLE=Dave Bell - Mixed Bag
DYEAR=1900
DGENRE=Blues
TTITLE0=Blues For A Rainy Day
TTITLE1=Jazzed!
TTITLE2=Lost In Love
TTITLE3=Bad Weather
TTITLE4=Funky Blue
TTITLE5=In The Groove
TTITLE6=Blue Mood
TTITLE7=Dreams
TTITLE8=Dave's Boogie
TTITLE9=Honkin'
TTITLE10=Blue On Green
TTITLE11=Funked Up
TTITLE12=Cha-Cha In Blue
EXTD=
EXTT0=
EXTT1=
EXTT2=
EXTT3=
EXTT4=
EXTT5=
EXTT6=
EXTT7=
EXTT8=
EXTT9=
EXTT10=
EXTT11=
EXTT12=
PLAYORDER=
